<svg xmlns="http://www.w3.org/2000/svg" width="902" height="784" xmlns:xlink="http://www.w3.org/1999/xlink" joint-selector="svg" id="v-2" class="waiting"><defs joint-selector="defs" class="waiting"><marker id="v-21429980022" orient="auto" overflow="visible" markerUnits="userSpaceOnUse" class="waiting"><path id="v-185" stroke="black" fill="none" transform="rotate(180)" d="m 10,-6 l -10,6 10,6" stroke-width="1.2" class="waiting"/></marker><marker id="v-2-933205445" orient="auto" overflow="visible" markerUnits="userSpaceOnUse" class="waiting"><path id="v-203" stroke="black" fill="black" transform="rotate(180)" d="m 12,-6 l -12,6 12,6 z" stroke-width="1.2" class="waiting"/></marker></defs><g joint-selector="layers" class="joint-layers waiting" transform="matrix(1,0,0,1,-14,-30)"><g joint-selector="back" class="joint-back-layer waiting"/><g joint-selector="cells" class="joint-cells-layer joint-viewport waiting"><g model-id="34ff3619-004e-4d5d-ad87-2dc4296fc821" data-type="Container" id="j_36" class="joint-cell joint-type-container joint-element joint-theme-default waiting" transform="translate(384,469)"><g id="v-215" class="waiting"><rect class="boundary waiting" id="v-218" fill="rgb(242,242,242)" height="120" rx="100" ry="40" stroke="black" stroke-dasharray="10,5,4,4" stroke-width="2" width="200" display="none" style=""/><circle class="element actorSymbol waiting" id="v-216" cx="40" cy="40" fill="rgb(205,254,205)" r="40" stroke="black" stroke-width="2" transform="translate(-20, -20)" style=""/><path class="actorDecorator waiting" id="v-219" d="m -11 45 q 30 15 62 0" fill="none" stroke="black" stroke-width="1.5" style=""/><text class="content waiting" id="v-217" font-size="12" xml:space="preserve" y="0.8em" fill="#000000" font-family="Arial, helvetica, sans-serif" text-anchor="middle" transform="matrix(1,0,0,1,20,14.8)"><tspan dy="0" class="v-line waiting">Alunos</tspan></text></g></g><g model-id="749f15f4-e5de-43fd-92e9-307d2a0d210f" data-type="Container" id="j_37" class="joint-cell joint-type-container joint-element joint-theme-default waiting" transform="translate(280,60)"><g id="v-226" class="waiting"><rect class="boundary waiting" id="v-229" fill="rgb(242,242,242)" height="120" rx="100" ry="40" stroke="black" stroke-dasharray="10,5,4,4" stroke-width="2" width="200" display="none"/><circle class="element actorSymbol waiting" id="v-227" cx="40" cy="40" fill="rgb(205,254,205)" r="40" stroke="black" stroke-width="2" transform="translate(-20, -20)"/><path class="actorDecorator waiting" id="v-230" d="m -11 45 q 30 15 62 0" fill="none" stroke="black" stroke-width="1.5"/><text class="content waiting" id="v-228" font-size="12" xml:space="preserve" y="0.8em" fill="#000000" font-family="Arial, helvetica, sans-serif" text-anchor="middle" transform="matrix(1,0,0,1,20,14.8)"><tspan dy="0" class="v-line waiting">Professor</tspan></text></g></g><g model-id="ce09754f-6311-40f9-9aeb-c07fdc52b32f" data-type="Container" id="j_38" class="joint-cell joint-type-container joint-element joint-theme-default waiting" transform="translate(378,743)"><g id="v-237" class="waiting"><rect class="boundary waiting" id="v-240" fill="rgb(242,242,242)" height="120" rx="100" ry="40" stroke="black" stroke-dasharray="10,5,4,4" stroke-width="2" width="200" display="none" style=""/><circle class="element actorSymbol waiting" id="v-238" cx="40" cy="40" fill="rgb(205,254,205)" r="40" stroke="black" stroke-width="2" transform="translate(-20, -20)" style=""/><path class="actorDecorator waiting" id="v-241" d="m -11 -5 62 0" fill="none" stroke="black" stroke-width="1.5" style=""/><text class="content waiting" id="v-239" font-size="12" xml:space="preserve" y="0.8em" fill="#000000" font-family="Arial, helvetica, sans-serif" text-anchor="middle" transform="matrix(1,0,0,1,20,8.8)"><tspan dy="0" class="v-line waiting">WhatsApp/</tspan><tspan dy="1em" x="0" class="v-line waiting">Discord</tspan></text></g></g><g model-id="a2d31e58-1033-4e52-acfe-8140e4e6f462" data-type="Container" id="j_39" class="joint-cell joint-type-container joint-element joint-theme-default waiting" transform="translate(846,230)"><g id="v-248" class="waiting"><rect class="boundary waiting" id="v-251" fill="rgb(242,242,242)" height="120" rx="100" ry="40" stroke="black" stroke-dasharray="10,5,4,4" stroke-width="2" width="200" display="none" style=""/><circle class="element actorSymbol waiting" id="v-249" cx="40" cy="40" fill="rgb(205,254,205)" r="40" stroke="black" stroke-width="2" transform="translate(-20, -20)" style=""/><path class="actorDecorator waiting" id="v-252" d="m -11 -5 62 0" fill="none" stroke="black" stroke-width="1.5" style=""/><text class="content waiting" id="v-250" font-size="12" xml:space="preserve" y="0.8em" fill="#000000" font-family="Arial, helvetica, sans-serif" text-anchor="middle" transform="matrix(1,0,0,1,20,14.8)"><tspan dy="0" class="v-line waiting">Classroom</tspan></text></g></g><g model-id="b1700cd7-c7f1-42ab-8b81-1b06e29e0cf7" data-type="Container" id="j_40" class="joint-cell joint-type-container joint-element joint-theme-default waiting" transform="translate(58,252)"><g id="v-259" class="waiting"><rect class="boundary waiting" id="v-262" fill="rgb(242,242,242)" height="120" rx="100" ry="40" stroke="black" stroke-dasharray="10,5,4,4" stroke-width="2" width="200" display="none"/><circle class="element actorSymbol waiting" id="v-260" cx="40" cy="40" fill="rgb(205,254,205)" r="40" stroke="black" stroke-width="2" transform="translate(-20, -20)"/><path class="actorDecorator waiting" id="v-263" d="m -11 -5 62 0" fill="none" stroke="black" stroke-width="1.5"/><text class="content waiting" id="v-261" font-size="12" xml:space="preserve" y="0.8em" fill="#000000" font-family="Arial, helvetica, sans-serif" text-anchor="middle" transform="matrix(1,0,0,1,20,14.8)"><tspan dy="0" class="v-line waiting">E-mail</tspan></text></g></g><g model-id="8e7f081c-2632-49f2-aefb-7f104944b836" data-type="DependencyLink" id="j_76" class="joint-cell joint-type-dependencylink joint-link joint-theme-default waiting"><path joint-selector="connection-wrap" id="v-436" fill="none" stroke="rgba(190, 190, 190, 0)" stroke-linecap="round" stroke-width="30" d="M 715.02 504.99 L 842.32 290" class="c-connection-wrap waiting"/><path joint-selector="line" id="v-435" fill="none" stroke="black" stroke-width="1" d="M 715.02 504.99 L 842.32 290" class="waiting"/><path joint-selector="label" id="v-437" d="m 0,-10 l 0,20 4,0 c 10,0, 10 -20, 0,-20 l -4,0" fill="white" stroke="black" stroke-width="2" transform="matrix(0.5095017273763384,-0.8604696332820394,0.8604696332820394,0.5095017273763384,778.7,397.5)" class="waiting"/></g><g model-id="d112fd35-24a5-44c0-8e22-ff0d5fcb830b" data-type="DependencyLink" id="j_75" class="joint-cell joint-type-dependencylink joint-link joint-theme-default waiting"><path joint-selector="connection-wrap" class="c-connection-wrap waiting" id="v-433" fill="none" stroke="rgba(190, 190, 190, 0)" stroke-linecap="round" stroke-width="30" d="M 444 492.78 L 667.99 513.93"/><path joint-selector="line" id="v-432" fill="none" stroke="black" stroke-width="1" d="M 444 492.78 L 667.99 513.93" class="waiting"/><path joint-selector="label" id="v-434" d="m 0,-10 l 0,20 4,0 c 10,0, 10 -20, 0,-20 l -4,0" fill="white" stroke="black" stroke-width="2" transform="matrix(0.9955716575873376,0.09400571583048072,-0.09400571583048072,0.9955716575873376,556,503.4)" class="waiting"/></g><g model-id="b6257636-ff92-43c8-9438-1553d085ed43" data-type="DependencyLink" id="j_73" class="joint-cell joint-type-dependencylink joint-link joint-theme-default waiting"><path joint-selector="connection-wrap" id="v-422" fill="none" stroke="transparent" stroke-linecap="round" stroke-width="20" d="M 195.26 359.59 L 118 301.88" class="c-connection-wrap waiting"/><path joint-selector="line" id="v-421" fill="none" stroke="black" stroke-width="1" d="M 195.26 359.59 L 118 301.88" class="waiting"/><path joint-selector="label" id="v-423" d="m 0,-10 l 0,20 4,0 c 10,0, 10 -20, 0,-20 l -4,0" fill="white" stroke="black" stroke-width="2" transform="matrix(-0.8011682370490691,-0.5984391831620708,0.5984391831620708,-0.8011682370490691,156.6,330.7)" class="waiting"/></g><g model-id="c971920d-caaa-443f-bc41-a3bb2d0fd2c8" data-type="DependencyLink" id="j_72" class="joint-cell joint-type-dependencylink joint-link joint-theme-default waiting"><path joint-selector="connection-wrap" class="c-connection-wrap waiting" id="v-419" fill="none" stroke="transparent" stroke-linecap="round" stroke-width="20" d="M 364 464.65 L 233.02 384.92"/><path joint-selector="line" id="v-418" fill="none" stroke="black" stroke-width="1" d="M 364 464.65 L 233.02 384.92" class="waiting"/><path joint-selector="label" id="v-420" d="m 0,-10 l 0,20 4,0 c 10,0, 10 -20, 0,-20 l -4,0" fill="white" stroke="black" stroke-width="2" transform="matrix(-0.8541897232750624,-0.5199614568900971,0.5199614568900971,-0.8541897232750624,298.5,424.8)" class="waiting"/></g><g model-id="378a79ca-cf02-4542-b08e-e63ccb2588d4" data-type="DependencyLink" id="j_70" class="joint-cell joint-type-dependencylink joint-link joint-theme-default waiting"><path joint-selector="connection-wrap" id="v-408" fill="none" stroke="transparent" stroke-linecap="round" stroke-width="20" d="M 662.29 113.12 L 826 223.12" class="c-connection-wrap waiting"/><path joint-selector="line" id="v-407" fill="none" stroke="black" stroke-width="1" d="M 662.29 113.12 L 826 223.12" class="waiting"/><path joint-selector="label" id="v-409" d="m 0,-10 l 0,20 4,0 c 10,0, 10 -20, 0,-20 l -4,0" fill="white" stroke="black" stroke-width="2" transform="matrix(0.8300323592666894,0.5577152342998831,-0.5577152342998831,0.8300323592666894,744.1,168.1)" class="waiting"/></g><g model-id="2f59b89e-6404-4dfe-b3ea-d14d488da501" data-type="DependencyLink" id="j_69" class="joint-cell joint-type-dependencylink joint-link joint-theme-default waiting"><path joint-selector="connection-wrap" class="c-connection-wrap waiting" id="v-405" fill="none" stroke="rgba(190, 190, 190, 0)" stroke-linecap="round" stroke-width="30" d="M 340 82.38 L 614.45 98.73"/><path joint-selector="line" id="v-404" fill="none" stroke="black" stroke-width="1" d="M 340 82.38 L 614.45 98.73" class="waiting"/><path joint-selector="label" id="v-406" d="m 0,-10 l 0,20 4,0 c 10,0, 10 -20, 0,-20 l -4,0" fill="white" stroke="black" stroke-width="2" transform="matrix(0.998230196991803,0.05946825887569077,-0.05946825887569077,0.998230196991803,477.2,90.6)" class="waiting"/></g><g model-id="66a26f71-5f8a-4d93-b3a7-ca653eeabc13" data-type="DependencyLink" id="j_67" class="joint-cell joint-type-dependencylink joint-link joint-theme-default waiting"><path joint-selector="connection-wrap" id="v-394" fill="none" stroke="rgba(190, 190, 190, 0)" stroke-linecap="round" stroke-width="30" d="M 444 501.19 L 727.67 587.66" class="c-connection-wrap waiting"/><path joint-selector="line" id="v-393" fill="none" stroke="black" stroke-width="1" d="M 444 501.19 L 727.67 587.66" class="waiting"/><path joint-selector="label" id="v-395" d="m 0,-10 l 0,20 4,0 c 10,0, 10 -20, 0,-20 l -4,0" fill="white" stroke="black" stroke-width="2" transform="matrix(0.9565463789384089,0.29158022041938636,-0.29158022041938636,0.9565463789384089,585.8,544.4)" class="waiting"/></g><g model-id="2a02917f-c2f5-4088-b18c-080402e0ad07" data-type="DependencyLink" id="j_66" class="joint-cell joint-type-dependencylink joint-link joint-theme-default waiting"><path joint-selector="connection-wrap" class="c-connection-wrap waiting" id="v-391" fill="none" stroke="rgba(190, 190, 190, 0)" stroke-linecap="round" stroke-width="30" d="M 760.55 583.79 L 853.36 290"/><path joint-selector="line" id="v-390" fill="none" stroke="black" stroke-width="1" d="M 760.55 583.79 L 853.36 290" class="waiting"/><path joint-selector="label" id="v-392" d="m 0,-10 l 0,20 4,0 c 10,0, 10 -20, 0,-20 l -4,0" fill="white" stroke="black" stroke-width="2" transform="matrix(0.3012325292566759,-0.9535507135530998,0.9535507135530998,0.3012325292566759,807,436.9)" class="waiting"/></g><g model-id="53c80ca6-f3ea-4623-83c1-35f10c6b6cab" data-type="DependencyLink" id="j_64" class="joint-cell joint-type-dependencylink joint-link joint-theme-default waiting"><path joint-selector="connection-wrap" id="v-380" fill="none" stroke="transparent" stroke-linecap="round" stroke-width="20" d="M 476.49 252.71 L 826 250.28" class="c-connection-wrap waiting"/><path joint-selector="line" id="v-379" fill="none" stroke="black" stroke-width="1" d="M 476.49 252.71 L 826 250.28" class="waiting"/><path joint-selector="label" id="v-381" d="m 0,-10 l 0,20 4,0 c 10,0, 10 -20, 0,-20 l -4,0" fill="white" stroke="black" stroke-width="2" transform="matrix(0.9999758318283782,-0.00695239233234955,0.00695239233234955,0.9999758318283782,651.2,251.5)" class="waiting"/></g><g model-id="5387112e-4b10-4f73-b430-4ece8e460071" data-type="DependencyLink" id="j_63" class="joint-cell joint-type-dependencylink joint-link joint-theme-default waiting"><path joint-selector="connection-wrap" class="c-connection-wrap waiting" id="v-377" fill="none" stroke="transparent" stroke-linecap="round" stroke-width="20" d="M 332.36 120 L 434.54 246.29"/><path joint-selector="line" id="v-376" fill="none" stroke="black" stroke-width="1" d="M 332.36 120 L 434.54 246.29" class="waiting"/><path joint-selector="label" id="v-378" d="m 0,-10 l 0,20 4,0 c 10,0, 10 -20, 0,-20 l -4,0" fill="white" stroke="black" stroke-width="2" transform="matrix(0.628994570516401,0.7774096926723311,-0.7774096926723311,0.628994570516401,383.5,183.1)" class="waiting"/></g><g model-id="f91345c3-c154-41c5-b300-078a02a61b20" data-type="DependencyLink" id="j_61" class="joint-cell joint-type-dependencylink joint-link joint-theme-default waiting"><path joint-selector="connection-wrap" id="v-366" fill="none" stroke="transparent" stroke-linecap="round" stroke-width="20" d="M 541.02 205.78 L 826 244.56" class="c-connection-wrap waiting"/><path joint-selector="line" id="v-365" fill="none" stroke="black" stroke-width="1" d="M 541.02 205.78 L 826 244.56" class="waiting"/><path joint-selector="label" id="v-367" d="m 0,-10 l 0,20 4,0 c 10,0, 10 -20, 0,-20 l -4,0" fill="white" stroke="black" stroke-width="2" transform="matrix(0.990867790576377,0.1348370186495132,-0.1348370186495132,0.990867790576377,683.5,225.2)" class="waiting"/></g><g model-id="e10fa265-b050-45de-bfe3-b7a6710c9705" data-type="DependencyLink" id="j_60" class="joint-cell joint-type-dependencylink joint-link joint-theme-default waiting"><path joint-selector="connection-wrap" class="c-connection-wrap waiting" id="v-363" fill="none" stroke="transparent" stroke-linecap="round" stroke-width="20" d="M 340 102.91 L 490.82 189.29"/><path joint-selector="line" id="v-362" fill="none" stroke="black" stroke-width="1" d="M 340 102.91 L 490.82 189.29" class="waiting"/><path joint-selector="label" id="v-364" d="m 0,-10 l 0,20 4,0 c 10,0, 10 -20, 0,-20 l -4,0" fill="white" stroke="black" stroke-width="2" transform="matrix(0.8677541105618145,0.49699376616118063,-0.49699376616118063,0.8677541105618145,415.4,146.1)" class="waiting"/></g><g model-id="c2da7490-83e8-499d-aa27-7d0e9d68836c" data-type="DependencyLink" id="j_58" class="joint-cell joint-type-dependencylink joint-link joint-theme-default waiting"><path joint-selector="connection-wrap" id="v-352" fill="none" stroke="transparent" stroke-linecap="round" stroke-width="20" d="M 603.49 159.53 L 826 236.22" class="c-connection-wrap waiting"/><path joint-selector="line" id="v-351" fill="none" stroke="black" stroke-width="1" d="M 603.49 159.53 L 826 236.22" class="waiting"/><path joint-selector="label" id="v-353" d="m 0,-10 l 0,20 4,0 c 10,0, 10 -20, 0,-20 l -4,0" fill="white" stroke="black" stroke-width="2" transform="matrix(0.9454221843261605,0.3258479605336688,-0.3258479605336688,0.9454221843261605,714.7,197.9)" class="waiting"/></g><g model-id="b462e721-a8ad-4ae6-bf2e-5d8a039b2e4b" data-type="DependencyLink" id="j_57" class="joint-cell joint-type-dependencylink joint-link joint-theme-default waiting"><path joint-selector="connection-wrap" class="c-connection-wrap waiting" id="v-349" fill="none" stroke="transparent" stroke-linecap="round" stroke-width="20" d="M 340 90 L 512.26 133.09"/><path joint-selector="line" id="v-348" fill="none" stroke="black" stroke-width="1" d="M 340 90 L 512.26 133.09" class="waiting"/><path joint-selector="label" id="v-350" d="m 0,-10 l 0,20 4,0 c 10,0, 10 -20, 0,-20 l -4,0" fill="white" stroke="black" stroke-width="2" transform="matrix(0.9701093640366989,0.24266813101087586,-0.24266813101087586,0.9701093640366989,426.1,111.5)" class="waiting"/></g><g model-id="25a302dd-f2a9-49e0-a3d8-defa4a9143de" data-type="DependencyLink" id="j_55" class="joint-cell joint-type-dependencylink joint-link joint-theme-default waiting"><path joint-selector="connection-wrap" class="c-connection-wrap waiting" id="v-338" fill="none" stroke="transparent" stroke-linecap="round" stroke-width="20" d="M 400.58 635.52 L 398.81 723"/><path joint-selector="line" id="v-337" fill="none" stroke="black" stroke-width="1" d="M 400.58 635.52 L 398.81 723" class="waiting"/><path joint-selector="label" id="v-339" d="m 0,-10 l 0,20 4,0 c 10,0, 10 -20, 0,-20 l -4,0" fill="white" stroke="black" stroke-width="2" transform="matrix(-0.020229056979151,0.9997953716904946,-0.9997953716904946,-0.020229056979151,399.7,679.3)" class="waiting"/></g><g model-id="05493962-6ec4-4c6a-a9cb-820533ad525f" data-type="DependencyLink" id="j_54" class="joint-cell joint-type-dependencylink joint-link joint-theme-default waiting"><path joint-selector="connection-wrap" class="c-connection-wrap waiting" id="v-335" fill="none" stroke="rgba(190, 190, 190, 0)" stroke-linecap="round" stroke-width="30" d="M 401.09 529 C 400.64399999999995 533.3375555555556 400.198 537.6751111111112 400 544 C 399.802 550.3248888888888 399.852 558.637111111111 400 570 C 400.148 581.362888888889 400.394 595.7764444444445 400.64 610.19"/><path joint-selector="line" id="v-334" fill="none" stroke="black" stroke-width="1" d="M 401.09 529 C 400.64399999999995 533.3375555555556 400.198 537.6751111111112 400 544 C 399.802 550.3248888888888 399.852 558.637111111111 400 570 C 400.148 581.362888888889 400.394 595.7764444444445 400.64 610.19" class="waiting"/><path joint-selector="label" id="v-336" d="m 0,-10 l 0,20 4,0 c 10,0, 10 -20, 0,-20 l -4,0" fill="white" stroke="black" stroke-width="2" transform="matrix(0.012890407929739016,0.9999169152401638,-0.9999169152401638,0.012890407929739016,400,569.6)" class="waiting"/></g><g model-id="c8cb8b46-cfca-4607-86bf-9279d8abb0ac" data-type="DependencyLink" id="j_52" class="joint-cell joint-type-dependencylink joint-link joint-theme-default waiting"><path joint-selector="connection-wrap" id="v-324" fill="none" stroke="transparent" stroke-linecap="round" stroke-width="20" d="M 598 379.79 L 826 269.37" class="c-connection-wrap waiting"/><path joint-selector="line" id="v-323" fill="none" stroke="black" stroke-width="1" d="M 598 379.79 L 826 269.37" class="waiting"/><path joint-selector="label" id="v-325" d="m 0,-10 l 0,20 4,0 c 10,0, 10 -20, 0,-20 l -4,0" fill="white" stroke="black" stroke-width="2" transform="matrix(0.9000084630366877,-0.43587241993769127,0.43587241993769127,0.9000084630366877,712,324.6)" class="waiting"/></g><g model-id="477efde5-ea7f-447f-879c-5e6b9e830953" data-type="DependencyLink" id="j_51" class="joint-cell joint-type-dependencylink joint-link joint-theme-default waiting"><path joint-selector="connection-wrap" class="c-connection-wrap waiting" id="v-321" fill="none" stroke="rgba(190, 190, 190, 0)" stroke-linecap="round" stroke-width="30" d="M 444 466.24 L 572.51 393.12"/><path joint-selector="line" id="v-320" fill="none" stroke="black" stroke-width="1" d="M 444 466.24 L 572.51 393.12" class="waiting"/><path joint-selector="label" id="v-322" d="m 0,-10 l 0,20 4,0 c 10,0, 10 -20, 0,-20 l -4,0" fill="white" stroke="black" stroke-width="2" transform="matrix(0.8691573935944626,-0.4945355651114288,0.4945355651114288,0.8691573935944626,508.3,429.7)" class="waiting"/></g><g model-id="98093e30-fc89-45b2-be1d-d6d2652b27f3" data-type="DependencyLink" id="j_49" class="joint-cell joint-type-dependencylink joint-link joint-theme-default waiting"><path joint-selector="connection-wrap" id="v-310" fill="none" stroke="transparent" stroke-linecap="round" stroke-width="20" d="M 543.21 321.32 L 826 258.84" class="c-connection-wrap waiting"/><path joint-selector="line" id="v-309" fill="none" stroke="black" stroke-width="1" d="M 543.21 321.32 L 826 258.84" class="waiting"/><path joint-selector="label" id="v-311" d="m 0,-10 l 0,20 4,0 c 10,0, 10 -20, 0,-20 l -4,0" fill="white" stroke="black" stroke-width="2" transform="matrix(0.9764511565581201,-0.2157385891682562,0.2157385891682562,0.9764511565581201,684.6,290.1)" class="waiting"/></g><g model-id="fb3a4922-eff7-4d3b-a1c6-2ff14eb8e8a4" data-type="DependencyLink" id="j_48" class="joint-cell joint-type-dependencylink joint-link joint-theme-default waiting"><path joint-selector="connection-wrap" class="c-connection-wrap waiting" id="v-307" fill="none" stroke="transparent" stroke-linecap="round" stroke-width="20" d="M 431.59 449 L 506.7 340.12"/><path joint-selector="line" id="v-306" fill="none" stroke="black" stroke-width="1" d="M 431.59 449 L 506.7 340.12" class="waiting"/><path joint-selector="label" id="v-308" d="m 0,-10 l 0,20 4,0 c 10,0, 10 -20, 0,-20 l -4,0" fill="white" stroke="black" stroke-width="2" transform="matrix(0.5678372562870028,-0.823140844796593,0.823140844796593,0.5678372562870028,469.1,394.6)" class="waiting"/></g><g model-id="07527d2c-84d2-492e-9e39-eef12eea1198" data-type="DependencyLink" id="j_46" class="joint-cell joint-type-dependencylink joint-link joint-theme-default waiting"><path joint-selector="connection-wrap" class="c-connection-wrap waiting" id="v-296" fill="none" stroke="transparent" stroke-linecap="round" stroke-width="20" d="M 71.9 467.29 L 76.75 312"/><path joint-selector="line" id="v-295" fill="none" stroke="black" stroke-width="1" d="M 71.9 467.29 L 76.75 312" class="waiting"/><path joint-selector="label" id="v-297" d="m 0,-10 l 0,20 4,0 c 10,0, 10 -20, 0,-20 l -4,0" fill="white" stroke="black" stroke-width="2" transform="matrix(0.03121676307973925,-0.9995126380905963,0.9995126380905963,0.03121676307973925,74.3,389.6)" class="waiting"/></g><g model-id="2214a424-89ba-47ea-ad0e-59ad4bea5c87" data-type="DependencyLink" id="j_45" class="joint-cell joint-type-dependencylink joint-link joint-theme-default waiting"><path joint-selector="connection-wrap" class="c-connection-wrap waiting" id="v-293" fill="none" stroke="rgba(190, 190, 190, 0)" stroke-linecap="round" stroke-width="30" d="M 364 487.91 L 111.14 481.04"/><path joint-selector="line" id="v-292" fill="none" stroke="black" stroke-width="1" d="M 364 487.91 L 111.14 481.04" class="waiting"/><path joint-selector="label" id="v-294" d="m 0,-10 l 0,20 4,0 c 10,0, 10 -20, 0,-20 l -4,0" fill="white" stroke="black" stroke-width="2" transform="matrix(-0.9996311252664081,-0.027159038985478303,0.027159038985478303,-0.9996311252664081,237.6,484.5)" class="waiting"/></g><g model-id="7adaa5fd-339b-4486-9b30-5525193ae9ae" data-type="DependencyLink" id="j_43" class="joint-cell joint-type-dependencylink joint-link joint-theme-default waiting"><path joint-selector="connection-wrap" class="c-connection-wrap waiting" id="v-282" fill="none" stroke="rgba(190, 190, 190, 0)" stroke-linecap="round" stroke-width="30" d="M 681.4 418.29 L 826 286.47"/><path joint-selector="line" id="v-281" fill="none" stroke="black" stroke-width="1" d="M 681.4 418.29 L 826 286.47" class="waiting"/><path joint-selector="label" id="v-283" d="m 0,-10 l 0,20 4,0 c 10,0, 10 -20, 0,-20 l -4,0" fill="white" stroke="black" stroke-width="2" transform="matrix(0.7390096982074675,-0.6736947869438413,0.6736947869438413,0.7390096982074675,753.7,352.4)" class="waiting"/></g><g model-id="119f1775-874d-4b09-b91b-4e32784af82c" data-type="DependencyLink" id="j_42" class="joint-cell joint-type-dependencylink joint-link joint-theme-default waiting"><path joint-selector="connection-wrap" class="c-connection-wrap waiting" id="v-279" fill="none" stroke="rgba(190, 190, 190, 0)" stroke-linecap="round" stroke-width="30" d="M 444 480.19 L 627.86 439.69"/><path joint-selector="line" id="v-278" fill="none" stroke="black" stroke-width="1" d="M 444 480.19 L 627.86 439.69" class="waiting"/><path joint-selector="label" id="v-280" d="m 0,-10 l 0,20 4,0 c 10,0, 10 -20, 0,-20 l -4,0" fill="white" stroke="black" stroke-width="2" transform="matrix(0.9765878170817422,-0.21511911939090317,0.21511911939090317,0.9765878170817422,535.9,459.9)" class="waiting"/></g><g model-id="dac41924-7542-4e1d-9635-dcc2c67df950" data-type="Task" id="j_41" class="joint-cell joint-type-task joint-element joint-theme-default waiting" fill="#ffffff" stroke="none" transform="translate(620,413)"><g class="scalable waiting" transform="scale(0.7307692307692307,1)"><polygon class="element waiting" id="v-270" fill="rgb(205,254,205)" height="36" points="0,18 15,0 115,0 130,18 115,36 15,36" stroke="black" stroke-width="2" vector-effect="non-scaling-stroke" width="130"/></g><text class="content waiting" id="v-271" font-size="12" xml:space="preserve" y="0.8em" font-weight="bold" text-anchor="middle" fill="#000000" font-family="Arial, helvetica, sans-serif" transform="matrix(1,0,0,1,47.5,6.8)"><tspan dy="0" class="v-line waiting">Contatar</tspan><tspan dy="1em" x="0" class="v-line waiting">outros alunos</tspan></text></g><g model-id="3412bf34-e4b1-4c6a-b10d-0e4cf053634c" data-type="Task" id="j_44" class="joint-cell joint-type-task joint-element joint-theme-default waiting" fill="#ffffff" stroke="none" transform="translate(24,462)"><g class="scalable waiting" transform="scale(0.7307692307692307,1)"><polygon class="element waiting" id="v-284" fill="rgb(205,254,205)" height="36" points="0,18 15,0 115,0 130,18 115,36 15,36" stroke="black" stroke-width="2" vector-effect="non-scaling-stroke" width="130"/></g><text class="content waiting" id="v-285" font-size="12" xml:space="preserve" y="0.8em" font-weight="bold" text-anchor="middle" fill="#000000" font-family="Arial, helvetica, sans-serif" transform="matrix(1,0,0,1,47.5,6.8)"><tspan dy="0" class="v-line waiting">Contatar</tspan><tspan dy="1em" x="0" class="v-line waiting">outros alunos</tspan></text></g><g model-id="a597805b-7c89-4b35-be3b-5c9325f6e684" data-type="Resource" id="j_47" class="joint-cell joint-type-resource joint-element joint-theme-default waiting" fill="#ffffff" stroke="none" transform="translate(471,310)"><g class="scalable waiting" transform="scale(0.6923076923076923,1.1666666666666667)"><rect class="element waiting" id="v-298" fill="rgb(205,254,205)" height="30" rx="0" stroke="black" stroke-width="2" vector-effect="non-scaling-stroke" width="130"/></g><text class="content waiting" id="v-299" font-size="12" xml:space="preserve" y="0.8em" font-weight="bold" fill="#000000" text-anchor="middle" font-family="Arial, helvetica, sans-serif" transform="matrix(1,0,0,1,45,6.3)"><tspan dy="0" class="v-line waiting">Tabela de</tspan><tspan dy="1em" x="0" class="v-line waiting">grupos</tspan></text></g><g model-id="9c46ceb7-8564-4187-9a07-2608327467e0" data-type="Goal" id="j_50" class="joint-cell joint-type-goal joint-element joint-theme-default waiting" fill="#ffffff" stroke="none" transform="translate(539,369)"><g class="scalable waiting" transform="scale(0.6923076923076923,1.1666666666666667)"><rect class="element waiting" id="v-312" fill="rgb(205,254,205)" height="30" rx="20" stroke="black" stroke-width="2" vector-effect="non-scaling-stroke" width="130"/></g><text class="content waiting" id="v-313" font-size="12" xml:space="preserve" y="0.8em" font-weight="bold" fill="#000000" text-anchor="middle" font-family="Arial, helvetica, sans-serif" transform="matrix(1,0,0,1,45,12.3)"><tspan dy="0" class="v-line waiting">Formar grupo</tspan></text></g><g model-id="bcea7e1b-b3e7-41d4-b9bc-43dbabd52c9f" data-type="Goal" id="j_53" class="joint-cell joint-type-goal joint-element joint-theme-default waiting" fill="#ffffff" stroke="none" transform="translate(350,598)"><g class="scalable waiting" transform="scale(0.790204326923077,1.6569010416666667)"><rect class="element waiting" id="v-326" fill="rgb(205,254,205)" height="30" rx="20" stroke="black" stroke-width="2" vector-effect="non-scaling-stroke" width="130"/></g><text class="content waiting" id="v-327" font-size="12" xml:space="preserve" y="0.8em" font-weight="bold" fill="#000000" text-anchor="middle" font-family="Arial, helvetica, sans-serif" transform="matrix(1,0,0,1,51.4,13.7)"><tspan dy="0" class="v-line waiting">Trabalhar juntos</tspan><tspan dy="1em" x="0" class="v-line waiting">no projeto</tspan></text></g><g model-id="88da4024-d259-4fe4-919a-e969c4fc4f56" data-type="Task" id="j_56" class="joint-cell joint-type-task joint-element joint-theme-default waiting" fill="#ffffff" stroke="none" transform="translate(487,128)"><g class="scalable waiting" transform="scale(1.1978966346153845,1.0196397569444444)"><polygon class="element waiting" id="v-340" fill="rgb(205,254,205)" height="36" points="0,18 15,0 115,0 130,18 115,36 15,36" stroke="black" stroke-width="2" vector-effect="non-scaling-stroke" width="130"/></g><text class="content waiting" id="v-341" font-size="12" xml:space="preserve" y="0.8em" font-weight="bold" text-anchor="middle" fill="#000000" font-family="Arial, helvetica, sans-serif" transform="matrix(1,0,0,1,77.9,6.6)"><tspan dy="0" class="v-line waiting">Disponibilizar</tspan><tspan dy="1em" x="0" class="v-line waiting">informações do projeto</tspan></text></g><g model-id="92bfee83-d6f1-4e01-ba67-ef2f9606c93f" data-type="Task" id="j_59" class="joint-cell joint-type-task joint-element joint-theme-default waiting" fill="#ffffff" stroke="none" transform="translate(465,184)"><g class="scalable waiting" transform="scale(0.7307692307692307,1)"><polygon class="element waiting" id="v-354" fill="rgb(205,254,205)" height="36" points="0,18 15,0 115,0 130,18 115,36 15,36" stroke="black" stroke-width="2" vector-effect="non-scaling-stroke" width="130"/></g><text class="content waiting" id="v-355" font-size="12" xml:space="preserve" y="0.8em" font-weight="bold" text-anchor="middle" fill="#000000" font-family="Arial, helvetica, sans-serif" transform="matrix(1,0,0,1,47.5,6.8)"><tspan dy="0" class="v-line waiting">Monitorar</tspan><tspan dy="1em" x="0" class="v-line waiting">grupos</tspan></text></g><g model-id="5667037c-1fb3-49a5-b39a-e04095dbf6a0" data-type="Task" id="j_62" class="joint-cell joint-type-task joint-element joint-theme-default waiting" fill="#ffffff" stroke="none" transform="translate(393,235)"><g class="scalable waiting" transform="scale(0.7307692307692307,1)"><polygon class="element waiting" id="v-368" fill="rgb(205,254,205)" height="36" points="0,18 15,0 115,0 130,18 115,36 15,36" stroke="black" stroke-width="2" vector-effect="non-scaling-stroke" width="130"/></g><text class="content waiting" id="v-369" font-size="12" xml:space="preserve" y="0.8em" font-weight="bold" text-anchor="middle" fill="#000000" font-family="Arial, helvetica, sans-serif" transform="matrix(1,0,0,1,47.5,12.8)"><tspan dy="0" class="v-line waiting">Ver entregas</tspan></text></g><g model-id="436200e5-0ef9-4dca-9f9f-2ef5abee02df" data-type="Goal" id="j_65" class="joint-cell joint-type-goal joint-element joint-theme-default waiting" fill="#ffffff" stroke="none" transform="translate(711,579)"><g class="scalable waiting" transform="scale(0.6923076923076923,1.1666666666666667)"><rect class="element waiting" id="v-382" fill="rgb(205,254,205)" height="30" rx="20" stroke="black" stroke-width="2" vector-effect="non-scaling-stroke" width="130"/></g><text class="content waiting" id="v-383" font-size="12" xml:space="preserve" y="0.8em" font-weight="bold" fill="#000000" text-anchor="middle" font-family="Arial, helvetica, sans-serif" transform="matrix(1,0,0,1,45,6.3)"><tspan dy="0" class="v-line waiting">Passar na</tspan><tspan dy="1em" x="0" class="v-line waiting">diciplina</tspan></text></g><g model-id="2834db72-688b-4909-a0fd-ca7494a19914" data-type="Goal" id="j_68" class="joint-cell joint-type-goal joint-element joint-theme-default waiting" fill="#ffffff" stroke="none" transform="translate(599,83)"><g class="scalable waiting" transform="scale(0.6923076923076923,1.1666666666666667)"><rect class="element waiting" id="v-396" fill="rgb(205,254,205)" height="30" rx="20" stroke="black" stroke-width="2" vector-effect="non-scaling-stroke" width="130"/></g><text class="content waiting" id="v-397" font-size="12" xml:space="preserve" y="0.8em" font-weight="bold" fill="#000000" text-anchor="middle" font-family="Arial, helvetica, sans-serif" transform="matrix(1,0,0,1,45,6.3)"><tspan dy="0" class="v-line waiting">Avaliar os</tspan><tspan dy="1em" x="0" class="v-line waiting">alunos</tspan></text></g><g model-id="72361118-30b1-4bc7-8b38-8eed3666f85b" data-type="Quality" id="j_71" class="joint-cell joint-type-quality joint-element joint-theme-default waiting" fill="#ffffff" stroke="none" transform="translate(167,343)"><g class="scalable waiting" transform="scale(0.7852376963043631,1.0380876764607305)"><path class="element waiting" id="v-410" d="m 60.637955,-4.0358 c 17.5174,2.2042 29.9953,-10.69554 41.892705,-4.7858 22.34142,10.8714 11.2203,43.7743 -2.25,47.7322 -8.276505,2.9084 -13.960205,5.1934 -46.142805,-2.1786 -6.7454,-2.2317 -28.2652,6.0799 -35.4643,4.7143 C 9.072156,39.4809 6.491756,33.7693 3.744956,28.482 c -6.3069,-15.1266 -2.5738,-28.0439 7.981099,-34.7856 10.5549,-6.74179 27.9316,-7.30796 48.9119,2.2678 z" fill="rgb(205,254,205)" stroke="black" stroke-width="2" vector-effect="non-scaling-stroke" transform="matrix(1,0,0,1,-0.7,11.3)"/></g><text class="content waiting" id="v-411" font-size="12" xml:space="preserve" y="0.8em" font-weight="bold" text-anchor="middle" fill="#000000" font-family="Arial, helvetica, sans-serif" transform="matrix(1,0,0,1,45,18.1)"><tspan dy="0" class="v-line waiting">Formar grupo</tspan><tspan dy="1em" x="0" class="v-line waiting">rapido</tspan></text></g><g model-id="089c7dbd-2fc1-4e12-83a6-476b27c459c8" data-type="Quality" id="j_74" class="joint-cell joint-type-quality joint-element joint-theme-default waiting" fill="#ffffff" stroke="none" transform="translate(663,491)"><g class="scalable waiting" transform="scale(0.7743577108353455,0.9005311521541494)"><path class="element waiting" id="v-424" d="m 60.637955,-4.0358 c 17.5174,2.2042 29.9953,-10.69554 41.892705,-4.7858 22.34142,10.8714 11.2203,43.7743 -2.25,47.7322 -8.276505,2.9084 -13.960205,5.1934 -46.142805,-2.1786 -6.7454,-2.2317 -28.2652,6.0799 -35.4643,4.7143 C 9.072156,39.4809 6.491756,33.7693 3.744956,28.482 c -6.3069,-15.1266 -2.5738,-28.0439 7.981099,-34.7856 10.5549,-6.74179 27.9316,-7.30796 48.9119,2.2678 z" fill="rgb(205,254,205)" stroke="black" stroke-width="2" vector-effect="non-scaling-stroke" transform="matrix(1,0,0,1,-0.7,11.3)"/></g><text class="content waiting" id="v-425" font-size="12" xml:space="preserve" y="0.8em" font-weight="bold" text-anchor="middle" fill="#000000" font-family="Arial, helvetica, sans-serif" transform="matrix(1,0,0,1,44.3,15.5)"><tspan dy="0" class="v-line waiting">Formar grupo</tspan><tspan dy="1em" x="0" class="v-line waiting">rapido</tspan></text></g></g><g joint-selector="front" class="joint-front-layer waiting"/><g joint-selector="tools" class="joint-tools-layer waiting"><g class="joint-tools joint-theme-default waiting"><g class="joint-tool joint-theme-default waiting" data-tool-name="vertices" model-id="119f1775-874d-4b09-b91b-4e32784af82c" style="display: none;"><path fill="none" stroke="transparent" stroke-width="10" cursor="cell" joint-selector="connection" d="M 444 480.19 L 627.86 439.69" class="joint-vertices-path waiting"/></g></g><g class="joint-tools joint-theme-default waiting"><g class="joint-tool joint-theme-default waiting" data-tool-name="vertices" model-id="7adaa5fd-339b-4486-9b30-5525193ae9ae" style="display: none;"><path fill="none" stroke="transparent" stroke-width="10" cursor="cell" joint-selector="connection" d="M 681.4 418.29 L 826 286.47" class="joint-vertices-path waiting"/></g></g><g class="joint-tools joint-theme-default waiting"><g class="joint-tool joint-theme-default waiting" data-tool-name="vertices" model-id="2214a424-89ba-47ea-ad0e-59ad4bea5c87" style="display: none;"><path fill="none" stroke="transparent" stroke-width="10" cursor="cell" joint-selector="connection" d="M 364 487.91 L 111.14 481.04" class="joint-vertices-path waiting"/></g></g><g class="joint-tools joint-theme-default waiting"><g class="joint-tool joint-theme-default waiting" data-tool-name="vertices" model-id="07527d2c-84d2-492e-9e39-eef12eea1198" style="display: none;"><path fill="none" stroke="transparent" stroke-width="10" cursor="cell" joint-selector="connection" d="M 71.9 467.29 L 76.75 312" class="joint-vertices-path waiting"/></g></g><g class="joint-tools joint-theme-default waiting"><g class="joint-tool joint-theme-default waiting" data-tool-name="vertices" model-id="fb3a4922-eff7-4d3b-a1c6-2ff14eb8e8a4" style="display: none;"><path fill="none" stroke="transparent" stroke-width="10" cursor="cell" joint-selector="connection" d="M 431.59 449 L 506.7 340.12" class="joint-vertices-path waiting"/></g></g><g class="joint-tools joint-theme-default waiting"><g class="joint-tool joint-theme-default waiting" data-tool-name="vertices" model-id="98093e30-fc89-45b2-be1d-d6d2652b27f3" style="display: none;"><path fill="none" stroke="transparent" stroke-width="10" cursor="cell" joint-selector="connection" d="M 543.21 321.32 L 826 258.84" class="joint-vertices-path waiting"/></g></g><g class="joint-tools joint-theme-default waiting"><g class="joint-tool joint-theme-default waiting" data-tool-name="vertices" model-id="477efde5-ea7f-447f-879c-5e6b9e830953" style="display: none;"><path fill="none" stroke="transparent" stroke-width="10" cursor="cell" joint-selector="connection" d="M 444 466.24 L 572.51 393.12" class="joint-vertices-path waiting"/></g></g><g class="joint-tools joint-theme-default waiting"><g class="joint-tool joint-theme-default waiting" data-tool-name="vertices" model-id="c8cb8b46-cfca-4607-86bf-9279d8abb0ac" style="display: none;"><path fill="none" stroke="transparent" stroke-width="10" cursor="cell" joint-selector="connection" d="M 598 379.79 L 826 269.37" class="joint-vertices-path waiting"/></g></g><g class="joint-tools joint-theme-default waiting"><g class="joint-tool joint-theme-default waiting" data-tool-name="vertices" model-id="05493962-6ec4-4c6a-a9cb-820533ad525f" style="display: none;"><path fill="none" stroke="transparent" stroke-width="10" cursor="cell" joint-selector="connection" d="M 401.09 529 C 400.64399999999995 533.3375555555556 400.198 537.6751111111112 400 544 C 399.802 550.3248888888888 399.852 558.637111111111 400 570 C 400.148 581.362888888889 400.394 595.7764444444445 400.64 610.19" class="joint-vertices-path waiting"/><circle r="6" fill="#33334F" stroke="#FFFFFF" stroke-width="2" cursor="move" class="joint-marker-vertex joint-theme-default waiting" cx="400" cy="544" model-id="05493962-6ec4-4c6a-a9cb-820533ad525f"/><circle r="6" fill="#33334F" stroke="#FFFFFF" stroke-width="2" cursor="move" class="joint-marker-vertex joint-theme-default waiting" cx="400" cy="570" model-id="05493962-6ec4-4c6a-a9cb-820533ad525f"/></g></g><g class="joint-tools joint-theme-default waiting"><g class="joint-tool joint-theme-default waiting" data-tool-name="vertices" model-id="25a302dd-f2a9-49e0-a3d8-defa4a9143de" style="display: none;"><path fill="none" stroke="transparent" stroke-width="10" cursor="cell" joint-selector="connection" d="M 400.58 635.52 L 398.81 723" class="joint-vertices-path waiting"/></g></g><g class="joint-tools joint-theme-default waiting"><g class="joint-tool joint-theme-default waiting" data-tool-name="vertices" model-id="b462e721-a8ad-4ae6-bf2e-5d8a039b2e4b" style="display: none;"><path fill="none" stroke="transparent" stroke-width="10" cursor="cell" joint-selector="connection" d="M 340 90 L 512.26 133.09" class="joint-vertices-path waiting"/></g></g><g class="joint-tools joint-theme-default waiting"><g class="joint-tool joint-theme-default waiting" data-tool-name="vertices" model-id="c2da7490-83e8-499d-aa27-7d0e9d68836c" style="display: none;"><path fill="none" stroke="transparent" stroke-width="10" cursor="cell" joint-selector="connection" d="M 603.49 159.53 L 826 236.22" class="joint-vertices-path waiting"/></g></g><g class="joint-tools joint-theme-default waiting"><g class="joint-tool joint-theme-default waiting" data-tool-name="vertices" model-id="e10fa265-b050-45de-bfe3-b7a6710c9705" style="display: none;"><path fill="none" stroke="transparent" stroke-width="10" cursor="cell" joint-selector="connection" d="M 340 102.91 L 490.82 189.29" class="joint-vertices-path waiting"/></g></g><g class="joint-tools joint-theme-default waiting"><g class="joint-tool joint-theme-default waiting" data-tool-name="vertices" model-id="f91345c3-c154-41c5-b300-078a02a61b20" style="display: none;"><path fill="none" stroke="transparent" stroke-width="10" cursor="cell" joint-selector="connection" d="M 541.02 205.78 L 826 244.56" class="joint-vertices-path waiting"/></g></g><g class="joint-tools joint-theme-default waiting"><g class="joint-tool joint-theme-default waiting" data-tool-name="vertices" model-id="5387112e-4b10-4f73-b430-4ece8e460071" style="display: none;"><path fill="none" stroke="transparent" stroke-width="10" cursor="cell" joint-selector="connection" d="M 332.36 120 L 434.54 246.29" class="joint-vertices-path waiting"/></g></g><g class="joint-tools joint-theme-default waiting"><g class="joint-tool joint-theme-default waiting" data-tool-name="vertices" model-id="53c80ca6-f3ea-4623-83c1-35f10c6b6cab" style="display: none;"><path fill="none" stroke="transparent" stroke-width="10" cursor="cell" joint-selector="connection" d="M 476.49 252.71 L 826 250.28" class="joint-vertices-path waiting"/></g></g><g class="joint-tools joint-theme-default waiting"><g class="joint-tool joint-theme-default waiting" data-tool-name="vertices" model-id="2a02917f-c2f5-4088-b18c-080402e0ad07" style="display: none;"><path fill="none" stroke="transparent" stroke-width="10" cursor="cell" joint-selector="connection" d="M 853.36 290 L 760.55 583.79" class="joint-vertices-path waiting"/></g></g><g class="joint-tools joint-theme-default waiting"><g class="joint-tool joint-theme-default waiting" data-tool-name="vertices" model-id="66a26f71-5f8a-4d93-b3a7-ca653eeabc13" style="display: none;"><path fill="none" stroke="transparent" stroke-width="10" cursor="cell" joint-selector="connection" d="M 727.67 587.66 L 444 501.19" class="joint-vertices-path waiting"/></g></g><g class="joint-tools joint-theme-default waiting"><g class="joint-tool joint-theme-default waiting" data-tool-name="vertices" model-id="2f59b89e-6404-4dfe-b3ea-d14d488da501" style="display: none;"><path fill="none" stroke="transparent" stroke-width="10" cursor="cell" joint-selector="connection" d="M 340 82.38 L 614.45 98.73" class="joint-vertices-path waiting"/></g></g><g class="joint-tools joint-theme-default waiting"><g class="joint-tool joint-theme-default waiting" data-tool-name="vertices" model-id="378a79ca-cf02-4542-b08e-e63ccb2588d4" style="display: none;"><path fill="none" stroke="transparent" stroke-width="10" cursor="cell" joint-selector="connection" d="M 662.29 113.12 L 826 223.12" class="joint-vertices-path waiting"/></g></g><g class="joint-tools joint-theme-default waiting"><g class="joint-tool joint-theme-default waiting" data-tool-name="vertices" model-id="c971920d-caaa-443f-bc41-a3bb2d0fd2c8" style="display: none;"><path fill="none" stroke="transparent" stroke-width="10" cursor="cell" joint-selector="connection" d="M 364 464.65 L 233.02 384.92" class="joint-vertices-path waiting"/></g></g><g class="joint-tools joint-theme-default waiting"><g class="joint-tool joint-theme-default waiting" data-tool-name="vertices" model-id="b6257636-ff92-43c8-9438-1553d085ed43" style="display: none;"><path fill="none" stroke="transparent" stroke-width="10" cursor="cell" joint-selector="connection" d="M 195.26 359.59 L 118 301.88" class="joint-vertices-path waiting"/></g></g><g class="joint-tools joint-theme-default waiting"><g class="joint-tool joint-theme-default waiting" data-tool-name="vertices" model-id="d112fd35-24a5-44c0-8e22-ff0d5fcb830b" style="display: none;"><path fill="none" stroke="transparent" stroke-width="10" cursor="cell" joint-selector="connection" d="M 444 492.78 L 667.99 513.93" class="joint-vertices-path waiting"/></g></g><g class="joint-tools joint-theme-default waiting"><g class="joint-tool joint-theme-default waiting" data-tool-name="vertices" model-id="8e7f081c-2632-49f2-aefb-7f104944b836" style="display: none;"><path fill="none" stroke="transparent" stroke-width="10" cursor="cell" joint-selector="connection" d="M 715.02 504.99 L 842.32 290" class="joint-vertices-path waiting"/></g></g></g></g></svg>